<svg xmlns="http://www.w3.org/2000/svg" viewBox="0 -0.5 64 20" shape-rendering="crispEdges">
<metadata>Made with Pixels to Svg https://codepen.io/shshaw/pen/XbxvNj</metadata>
<path stroke="#000000" d="M0 0h1M2 0h1M62 0h2M0 1h1M63 1h1M15 3h1M17 3h2M23 3h2M14 4h3M19 4h1M22 4h3M32 4h3M40 4h2M46 4h2M13 5h3M19 5h2M23 5h2M30 5h6M39 5h3M45 5h3M14 6h2M19 6h2M23 6h2M29 6h1M35 6h1M38 6h1M40 6h2M46 6h2M14 7h2M19 7h2M23 7h2M31 7h1M33 7h3M40 7h2M46 7h2M14 8h3M19 8h1M23 8h1M30 8h2M34 8h2M40 8h2M45 8h3M14 9h5M23 9h2M29 9h2M34 9h2M41 9h1M43 9h5M14 10h1M23 10h2M29 10h1M34 10h2M43 10h1M46 10h2M14 11h2M23 11h2M26 11h1M29 11h2M34 11h2M46 11h2M14 12h3M23 12h4M29 12h8M39 12h2M45 12h2M14 13h2M24 13h2M30 13h5M40 13h6M41 14h5M0 16h1M63 16h1M0 17h3M61 17h3M0 18h64M1 19h62" />
<path stroke="#010101" d="M1 0h1M31 4h1M34 6h1M32 7h1M24 8h1M42 9h1M15 10h1M42 10h1M44 10h1M46 13h1M0 19h1M63 19h1" />
<path stroke="#b2b2b2" d="M3 0h1M17 0h1M29 0h1M36 0h1M38 0h1M44 0h1" />
<path stroke="#b1b1b1" d="M4 0h3M8 0h9M18 0h11M30 0h1M32 0h1M34 0h2M37 0h1M40 0h4M45 0h5M51 0h11M3 17h1M5 17h54M60 17h1" />
<path stroke="#b0b0b0" d="M7 0h1M31 0h1M33 0h1M39 0h1M50 0h1M4 17h1M59 17h1" />
<path stroke="#ffffff" d="M1 1h2M57 1h6M63 2h1M0 3h1M63 3h1M0 4h1M0 5h1M63 5h1M0 14h1M63 14h1M1 15h2M61 15h2M3 16h58" />
<path stroke="#f2f2f2" d="M3 1h12M17 1h6M25 1h7M33 1h8M43 1h3M47 1h3M51 1h6M1 2h4M6 2h7M14 2h2M17 2h7M25 2h7M33 2h6M41 2h9M51 2h5M57 2h6M1 3h1M3 3h12M16 3h1M19 3h4M25 3h4M30 3h3M34 3h6M41 3h9M51 3h5M57 3h3M61 3h2M1 4h13M18 4h1M20 4h2M26 4h5M35 4h1M37 4h2M43 4h2M48 4h15M1 5h12M17 5h2M21 5h2M26 5h4M36 5h3M43 5h1M48 5h1M50 5h7M58 5h5M0 6h14M16 6h2M21 6h2M25 6h4M30 6h2M36 6h2M39 6h1M42 6h4M48 6h1M50 6h14M0 7h7M8 7h5M16 7h1M18 7h1M21 7h2M25 7h2M28 7h3M36 7h4M42 7h4M48 7h1M50 7h7M58 7h2M61 7h3M0 8h9M10 8h4M18 8h1M20 8h3M25 8h5M33 8h1M36 8h1M38 8h2M42 8h3M48 8h9M58 8h4M63 8h1M0 9h4M5 9h5M11 9h3M19 9h4M25 9h3M32 9h1M36 9h4M48 9h9M58 9h1M61 9h3M0 10h14M17 10h3M21 10h2M25 10h4M30 10h4M36 10h6M45 10h1M48 10h13M0 11h5M6 11h1M8 11h6M16 11h7M27 11h2M32 11h2M36 11h1M38 11h8M48 11h15M0 12h5M6 12h8M17 12h6M27 12h2M37 12h2M42 12h3M47 12h10M58 12h6M0 13h6M7 13h7M16 13h8M27 13h3M35 13h4M47 13h17M1 14h1M3 14h3M7 14h6M14 14h8M23 14h10M34 14h2M37 14h4M46 14h10M57 14h4M62 14h1M3 15h7M11 15h2M14 15h21M36 15h2M39 15h1M41 15h15M57 15h4" />
<path stroke="#f3f3f3" d="M15 1h2M24 1h1M32 1h1M41 1h2M5 2h1M13 2h1M32 2h1M39 2h1M29 3h1M33 3h1M40 3h1M56 3h1M60 3h1M17 4h1M25 4h1M36 4h1M39 4h1M42 4h1M45 4h1M42 5h1M44 5h1M49 5h1M57 5h1M18 6h1M32 6h2M49 6h1M7 7h1M13 7h1M27 7h1M49 7h1M57 7h1M60 7h1M37 8h1M57 8h1M62 8h1M4 9h1M10 9h1M28 9h1M33 9h1M40 9h1M5 11h1M25 11h1M37 11h1M41 12h1M57 12h1M26 13h1M39 13h1M22 14h1M33 14h1M36 14h1M56 14h1M61 14h1M10 15h1M35 15h1M40 15h1M56 15h1" />
<path stroke="#f1f1f1" d="M23 1h1M46 1h1M50 1h1M16 2h1M24 2h1M40 2h1M50 2h1M56 2h1M2 3h1M50 3h1M16 5h1M17 7h1M9 8h1M17 8h1M32 8h1M31 9h1M57 9h1M16 10h1M20 10h1M7 11h1M5 12h1M6 13h1M2 14h1M6 14h1M13 14h1M13 15h1M38 15h1" />
<path stroke="#fefefe" d="M0 2h1M63 4h1" />
<path stroke="#020202" d="M25 5h1" />
<path stroke="#9c9c9c" d="M59 9h2M61 10h1" />
<path stroke="#9d9d9d" d="M62 10h2M63 11h1M0 15h1M63 15h1M1 16h2M61 16h2" />
<path stroke="#f4f4f4" d="M31 11h1" />
</svg>