<svg xmlns="http://www.w3.org/2000/svg" viewBox="0 -0.5 32 35" shape-rendering="crispEdges">
<metadata>Made with Pixels to Svg https://codepen.io/shshaw/pen/XbxvNj</metadata>
<path stroke="#000000" d="M0 0h2M30 0h2M0 1h1M31 1h1M5 27h1M0 33h1M31 33h1M0 34h2M30 34h2" />
<path stroke="#ffffff" d="M2 0h23M26 0h4M1 1h6M9 1h22M0 2h4M5 2h14M23 2h9M0 3h8M9 3h9M25 3h7M0 4h2M3 4h12M16 4h4M27 4h5M0 5h15M16 5h2M28 5h4M0 6h14M16 6h1M20 6h3M25 6h2M28 6h4M0 7h1M2 7h12M29 7h3M0 8h14M15 8h1M30 8h2M0 9h14M17 9h2M29 9h3M0 10h8M9 10h7M18 10h1M29 10h3M0 11h16M21 11h3M28 11h4M0 12h16M25 12h1M28 12h4M0 13h16M28 13h4M0 14h13M18 14h2M24 14h1M27 14h5M0 15h13M20 15h4M26 15h6M0 16h7M8 16h5M17 16h1M20 16h12M0 17h8M9 17h1M15 17h1M17 17h15M0 18h10M15 18h17M0 19h10M14 19h18M0 20h4M5 20h4M12 20h20M0 21h9M11 21h2M14 21h3M18 21h3M22 21h10M0 22h8M10 22h12M23 22h9M1 23h6M10 23h22M0 24h7M10 24h1M12 24h20M0 25h5M7 25h25M0 26h4M7 26h25M0 27h3M7 27h23M31 27h1M0 28h3M7 28h25M0 29h3M7 29h25M1 30h3M5 30h22M28 30h3M2 31h28" />
<path stroke="#fefefe" d="M25 0h1M7 1h2M4 2h1M19 2h1M8 3h1M2 4h1M1 7h1M24 7h1M29 8h1M8 10h1M20 11h1M7 16h1M8 17h1M4 20h1M13 21h1M17 21h1M21 21h1M22 22h1M0 23h1M11 24h1M30 27h1M4 30h1M27 30h1" />
<path stroke="#f4f4f4" d="M20 2h1M20 4h1M22 4h1M15 7h1M28 7h1M24 9h1M25 13h1M27 13h1M13 14h1M15 14h1M16 17h1" />
<path stroke="#e9e9e9" d="M21 2h1M26 4h1M26 10h1M28 10h1M18 16h1M14 18h1M9 20h1" />
<path stroke="#cccccc" d="M22 2h1M17 10h1M4 26h1" />
<path stroke="#dfdfdf" d="M18 3h1M19 7h1M15 9h1M18 13h1M14 14h1M13 15h1M15 16h1M14 17h1M10 19h1M9 23h1" />
<path stroke="#626262" d="M19 3h1" />
<path stroke="#383838" d="M20 3h1M17 13h1" />
<path stroke="#616161" d="M21 3h1M14 6h1M21 10h1M24 13h1M11 17h1" />
<path stroke="#2a2a2a" d="M22 3h1" />
<path stroke="#343434" d="M23 3h1" />
<path stroke="#464646" d="M24 3h1M16 11h1" />
<path stroke="#818181" d="M15 4h1" />
<path stroke="#d5d5d5" d="M21 4h1M26 9h1M22 12h1M10 17h1M3 29h1" />
<path stroke="#a1a1a1" d="M23 4h1M23 7h1" />
<path stroke="#2c2c2c" d="M24 4h1M16 9h1" />
<path stroke="#1e1e1e" d="M25 4h1M15 5h1" />
<path stroke="#c1c1c1" d="M18 5h1" />
<path stroke="#2b2b2b" d="M19 5h1M20 10h1" />
<path stroke="#242424" d="M20 5h1" />
<path stroke="#252525" d="M21 5h1M14 7h1M8 24h1" />
<path stroke="#232323" d="M22 5h1" />
<path stroke="#292929" d="M23 5h1" />
<path stroke="#959595" d="M24 5h1M4 32h1" />
<path stroke="#898989" d="M25 5h1" />
<path stroke="#1b1b1b" d="M26 5h1M22 7h1M23 13h1" />
<path stroke="#585858" d="M27 5h1" />
<path stroke="#707070" d="M15 6h1M23 12h1" />
<path stroke="#7f7f7f" d="M17 6h1M21 14h1" />
<path stroke="#212121" d="M18 6h1" />
<path stroke="#949494" d="M19 6h1M20 7h1" />
<path stroke="#262626" d="M23 6h1" />
<path stroke="#141414" d="M24 6h1M8 23h1" />
<path stroke="#f2f2f2" d="M27 6h1" />
<path stroke="#6f6f6f" d="M16 7h1" />
<path stroke="#161616" d="M17 7h1" />
<path stroke="#515151" d="M18 7h1" />
<path stroke="#525252" d="M21 7h1M27 8h1" />
<path stroke="#414141" d="M25 7h1" />
<path stroke="#9a9a9a" d="M26 7h1M28 8h1M19 12h1M26 14h1" />
<path stroke="#858585" d="M27 7h1" />
<path stroke="#181818" d="M14 8h1M20 8h1" />
<path stroke="#313131" d="M16 8h1" />
<path stroke="#b2b2b2" d="M17 8h1M19 10h1M20 12h1" />
<path stroke="#c3c3c3" d="M18 8h1M16 12h1M19 15h1M5 25h1" />
<path stroke="#353535" d="M19 8h1M9 22h1" />
<path stroke="#333333" d="M21 8h1" />
<path stroke="#191919" d="M22 8h1" />
<path stroke="#656565" d="M23 8h1M14 15h1" />
<path stroke="#a7a7a7" d="M24 8h1" />
<path stroke="#505050" d="M25 8h1" />
<path stroke="#a8a8a8" d="M26 8h1M25 11h1" />
<path stroke="#6b6b6b" d="M14 9h1" />
<path stroke="#8e8e8e" d="M19 9h1M24 10h1M17 14h1" />
<path stroke="#070707" d="M20 9h1" />
<path stroke="#030303" d="M21 9h1M7 24h1" />
<path stroke="#1c1c1c" d="M22 9h1" />
<path stroke="#4e4e4e" d="M23 9h1M22 10h1M19 11h1" />
<path stroke="#484848" d="M25 9h1" />
<path stroke="#4f4f4f" d="M27 9h1M26 13h1M12 19h1" />
<path stroke="#a9a9a9" d="M28 9h1M21 12h1" />
<path stroke="#0f0f0f" d="M16 10h1" />
<path stroke="#131313" d="M23 10h1" />
<path stroke="#7b7b7b" d="M25 10h1" />
<path stroke="#595959" d="M27 10h1M22 14h1" />
<path stroke="#1f1f1f" d="M17 11h1" />
<path stroke="#868686" d="M18 11h1" />
<path stroke="#737373" d="M24 11h1M30 32h1" />
<path stroke="#8d8d8d" d="M26 11h1" />
<path stroke="#6e6e6e" d="M27 11h1" />
<path stroke="#050505" d="M17 12h1M15 15h1M14 16h1M5 28h1" />
<path stroke="#0d0d0d" d="M18 12h1" />
<path stroke="#363636" d="M24 12h1M22 13h1" />
<path stroke="#5e5e5e" d="M26 12h1" />
<path stroke="#aaaaaa" d="M27 12h1M9 24h1" />
<path stroke="#020202" d="M16 13h1" />
<path stroke="#3d3d3d" d="M19 13h1" />
<path stroke="#454545" d="M20 13h1M13 16h1" />
<path stroke="#767676" d="M21 13h1" />
<path stroke="#010101" d="M16 14h1M12 18h1M6 25h1M5 26h1" />
<path stroke="#b0b0b0" d="M20 14h1M10 18h1" />
<path stroke="#f3f3f3" d="M23 14h1" />
<path stroke="#565656" d="M25 14h1M10 21h1" />
<path stroke="#bbbbbb" d="M16 15h1" />
<path stroke="#090909" d="M17 15h1" />
<path stroke="#303030" d="M18 15h1" />
<path stroke="#747474" d="M24 15h1" />
<path stroke="#727272" d="M25 15h1M1 31h1M30 31h1M1 32h1M1 33h1M30 33h1" />
<path stroke="#696969" d="M16 16h1" />
<path stroke="#969696" d="M19 16h1M0 30h1M31 30h1M0 31h1M31 31h1M0 32h1M2 32h2M5 32h1M7 32h23M31 32h1M2 33h28M2 34h28" />
<path stroke="#282828" d="M12 17h1" />
<path stroke="#0a0a0a" d="M13 17h1M6 26h1" />
<path stroke="#545454" d="M11 18h1" />
<path stroke="#4b4b4b" d="M13 18h1" />
<path stroke="#0b0b0b" d="M11 19h1M10 20h1M4 27h1" />
<path stroke="#676767" d="M13 19h1" />
<path stroke="#5a5a5a" d="M11 20h1" />
<path stroke="#121212" d="M9 21h1M7 23h1" />
<path stroke="#0e0e0e" d="M8 22h1" />
<path stroke="#939393" d="M3 27h1M3 28h1" />
<path stroke="#a3a3a3" d="M6 27h1" />
<path stroke="#1d1d1d" d="M4 28h1" />
<path stroke="#0c0c0c" d="M6 28h1" />
<path stroke="#646464" d="M4 29h1" />
<path stroke="#494949" d="M5 29h1" />
<path stroke="#bababa" d="M6 29h1" />
<path stroke="#979797" d="M6 32h1" />
</svg>