<svg xmlns="http://www.w3.org/2000/svg" viewBox="0 -0.5 86 24" shape-rendering="crispEdges">
<metadata>Made with Pixels to Svg https://codepen.io/shshaw/pen/XbxvNj</metadata>
<path stroke="#000000" d="M0 0h2M84 0h2M0 1h1M2 1h82M85 1h1M1 2h84M1 3h6M8 3h72M81 3h4M1 4h84M1 5h84M1 6h84M1 7h2M4 7h81M1 8h84M1 9h84M1 10h84M1 11h84M1 12h84M1 13h84M1 14h84M1 15h84M1 16h2M4 16h81M1 17h84M1 18h84M1 19h84M1 20h6M8 20h72M81 20h4M1 21h84M0 22h1M2 22h82M85 22h1M0 23h2M84 23h2" />
<path stroke="#ffffff" d="M2 0h4M7 0h77M1 1h1M84 1h1M0 2h1M85 2h1M0 3h1M85 3h1M0 4h1M85 4h1M0 5h1M85 5h1M85 6h1M0 7h1M85 7h1M0 8h1M85 8h1M0 9h1M85 9h1M0 10h1M85 10h1M0 11h1M85 11h1M0 12h1M85 12h1M0 13h1M85 13h1M0 14h1M85 14h1M0 15h1M85 15h1M0 16h1M85 16h1M85 17h1M0 18h1M85 18h1M0 19h1M85 19h1M0 20h1M85 20h1M0 21h1M85 21h1M1 22h1M84 22h1M2 23h4M7 23h77" />
<path stroke="#fefefe" d="M6 0h1M0 6h1M0 17h1M6 23h1" />
<path stroke="#010101" d="M7 3h1M80 3h1M3 7h1M3 16h1M7 20h1M80 20h1" />
</svg>