<svg xmlns="http://www.w3.org/2000/svg" viewBox="0 -0.5 32 35" shape-rendering="crispEdges">
<metadata>Made with Pixels to Svg https://codepen.io/shshaw/pen/XbxvNj</metadata>
<path stroke="#000000" d="M0 0h2M30 0h2M0 1h1M31 1h1M15 7h1M11 9h1M14 11h1M14 12h1M14 13h1M14 14h1M18 16h1M13 23h1M0 33h1M31 33h1M0 34h2M30 34h2" />
<path stroke="#ffffff" d="M2 0h24M27 0h3M1 1h6M8 1h12M23 1h2M26 1h5M0 2h4M5 2h5M11 2h6M18 2h14M0 3h18M19 3h13M0 4h2M3 4h8M23 4h9M0 5h10M26 5h6M0 6h11M20 6h3M26 6h6M0 7h1M2 7h8M21 7h3M26 7h6M0 8h10M20 8h4M26 8h6M0 9h9M20 9h5M26 9h2M29 9h3M0 10h2M3 10h6M20 10h5M26 10h6M0 11h8M10 11h2M20 11h5M26 11h6M0 12h3M4 12h4M9 12h4M20 12h5M26 12h6M0 13h4M5 13h2M9 13h4M20 13h5M26 13h6M0 14h7M9 14h2M12 14h1M20 14h5M26 14h6M0 15h4M10 15h3M20 15h5M26 15h6M0 16h3M8 16h9M20 16h2M24 16h1M26 16h5M0 17h3M6 17h1M9 17h7M20 17h2M24 17h1M26 17h6M0 18h3M10 18h5M20 18h3M26 18h6M0 19h4M10 19h4M20 19h5M26 19h6M0 20h5M6 20h2M10 20h5M21 20h3M26 20h6M0 21h8M10 21h5M20 21h5M26 21h6M0 22h8M10 22h2M20 22h5M26 22h6M0 23h8M9 23h2M20 23h5M26 23h6M0 24h1M2 24h5M9 24h1M15 24h1M20 24h5M26 24h6M0 25h7M9 25h1M14 25h1M20 25h5M26 25h6M1 26h6M20 26h5M26 26h5M0 27h6M21 27h3M26 27h6M0 28h6M10 28h8M24 28h1M27 28h5M0 29h7M9 29h13M27 29h5M1 30h24M27 30h4M2 31h20M23 31h7" />
<path stroke="#fefefe" d="M26 0h1M7 1h1M20 1h3M25 1h1M4 2h1M10 2h1M17 2h1M2 4h1M1 7h1M28 9h1M2 10h1M3 12h1M4 13h1M11 14h1M31 16h1M20 20h1M24 20h1M1 24h1M0 26h1M31 26h1M24 27h1M22 31h1" />
<path stroke="#dfdfdf" d="M18 3h1M5 20h1M25 30h1" />
<path stroke="#c1c1c1" d="M11 4h1M9 9h1M15 22h1" />
<path stroke="#444444" d="M12 4h1M6 15h1M4 19h1M11 23h1M24 29h1" />
<path stroke="#0e0e0e" d="M13 4h1M13 7h1M8 13h1M8 14h1M17 25h1" />
<path stroke="#151515" d="M14 4h1M11 7h1M14 7h1M6 16h1M3 17h1M19 27h1M7 28h1" />
<path stroke="#0a0a0a" d="M15 4h1M17 4h2M12 8h1M19 11h1M5 16h1M16 23h2M18 26h1" />
<path stroke="#030303" d="M16 4h1M15 6h1M17 8h1M8 12h1M16 14h1M7 15h1M18 15h1M18 17h1M6 19h1M13 25h1" />
<path stroke="#040404" d="M19 4h1M13 8h1M18 9h1M15 14h1" />
<path stroke="#292929" d="M20 4h1" />
<path stroke="#272727" d="M21 4h1M11 6h1" />
<path stroke="#5f5f5f" d="M22 4h1" />
<path stroke="#d7d7d7" d="M10 5h1" />
<path stroke="#060606" d="M11 5h1M12 7h1M11 8h1M10 9h1M14 9h1M16 12h1M7 18h1M5 19h1M18 22h1M18 24h1M13 26h1" />
<path stroke="#050505" d="M12 5h1M14 5h1M17 5h1M15 9h1M17 11h2M16 19h1M17 22h1M18 23h1M18 25h1" />
<path stroke="#090909" d="M13 5h1M13 9h1M16 10h1M18 10h1M8 28h1" />
<path stroke="#0c0c0c" d="M15 5h1M9 10h1M4 16h1M8 18h1M17 18h1" />
<path stroke="#070707" d="M16 5h1M17 7h1M15 11h1M16 24h1M11 26h1" />
<path stroke="#0f0f0f" d="M18 5h1M17 13h1M12 24h1" />
<path stroke="#111111" d="M19 5h1M19 6h1M19 7h1M12 23h1" />
<path stroke="#e8e8e8" d="M20 5h1M9 15h1M16 17h1M14 19h1" />
<path stroke="#dedede" d="M21 5h1" />
<path stroke="#323232" d="M22 5h1M14 26h1" />
<path stroke="#1d1d1d" d="M23 5h1" />
<path stroke="#3e3e3e" d="M24 5h1" />
<path stroke="#b9b9b9" d="M25 5h1" />
<path stroke="#020202" d="M12 6h1M16 8h1M12 9h1M17 19h1M8 23h1M18 27h1" />
<path stroke="#0b0b0b" d="M13 6h2M16 7h1M13 10h1M17 10h1M17 12h2M23 17h1M18 20h1M17 27h1" />
<path stroke="#141414" d="M16 6h1M10 10h1M19 16h1M18 19h1M11 24h1" />
<path stroke="#010101" d="M17 6h1M15 8h1M17 9h1M14 10h1M18 14h1M16 20h2M17 21h1M13 24h1M12 25h1M12 26h1" />
<path stroke="#2c2c2c" d="M18 6h1M18 8h1M7 14h1M7 25h1" />
<path stroke="#8c8c8c" d="M23 6h1" />
<path stroke="#3d3d3d" d="M24 6h1M16 22h1M21 28h1" />
<path stroke="#343434" d="M25 6h1" />
<path stroke="#a8a8a8" d="M10 7h1M13 12h1" />
<path stroke="#1f1f1f" d="M18 7h1M15 13h1" />
<path stroke="#f4f4f4" d="M20 7h1M24 8h1M12 11h1M15 18h1M23 18h2M15 21h1M22 29h1" />
<path stroke="#dddddd" d="M24 7h1M13 13h1M10 24h1" />
<path stroke="#333333" d="M25 7h1M22 17h1M8 24h1M7 26h1" />
<path stroke="#767676" d="M10 8h1" />
<path stroke="#1c1c1c" d="M14 8h1M19 13h1M14 15h1" />
<path stroke="#262626" d="M19 8h1M19 14h1M22 16h1" />
<path stroke="#606060" d="M25 8h1" />
<path stroke="#080808" d="M16 9h1M15 10h1M16 13h1M17 14h1M8 22h1" />
<path stroke="#434343" d="M19 9h1" />
<path stroke="#6b6b6b" d="M25 9h1M25 14h1M4 17h1M8 21h1" />
<path stroke="#d6d6d6" d="M11 10h1M6 27h1M26 28h1" />
<path stroke="#5e5e5e" d="M12 10h1M17 17h1" />
<path stroke="#353535" d="M19 10h1M15 15h1" />
<path stroke="#545454" d="M25 10h1M25 28h1" />
<path stroke="#363636" d="M8 11h1" />
<path stroke="#131313" d="M9 11h1M16 26h1M9 27h1" />
<path stroke="#494949" d="M13 11h1" />
<path stroke="#0d0d0d" d="M16 11h1M18 13h1M10 26h1M25 29h1" />
<path stroke="#848484" d="M25 11h1M16 18h1M9 20h1" />
<path stroke="#282828" d="M15 12h1" />
<path stroke="#3a3a3a" d="M19 12h1M19 21h1" />
<path stroke="#878787" d="M25 12h1M14 22h1M25 25h1" />
<path stroke="#7a7a7a" d="M7 13h1M25 20h1M26 29h1" />
<path stroke="#727272" d="M25 13h1M15 19h1M23 28h1M1 31h1M30 31h1M1 32h1M1 33h1M30 33h1" />
<path stroke="#a3a3a3" d="M13 14h1M25 19h1M25 23h1" />
<path stroke="#e9e9e9" d="M4 15h1M9 18h1M7 29h1M26 30h1" />
<path stroke="#a7a7a7" d="M5 15h1" />
<path stroke="#1a1a1a" d="M8 15h1M7 27h1" />
<path stroke="#969696" d="M13 15h1M0 30h1M31 30h1M0 31h1M31 31h1M0 32h1M2 32h2M5 32h1M7 32h23M31 32h1M2 33h28M2 34h28" />
<path stroke="#686868" d="M16 15h1M8 25h1" />
<path stroke="#373737" d="M17 15h1" />
<path stroke="#191919" d="M19 15h1" />
<path stroke="#ababab" d="M25 15h1" />
<path stroke="#232323" d="M3 16h1M19 17h1M10 25h1" />
<path stroke="#aaaaaa" d="M7 16h1" />
<path stroke="#b2b2b2" d="M17 16h1" />
<path stroke="#161616" d="M23 16h1M16 21h1M13 22h1M15 26h1" />
<path stroke="#707070" d="M25 16h1" />
<path stroke="#e6e6e6" d="M5 17h1" />
<path stroke="#fcfcfc" d="M7 17h1" />
<path stroke="#eaeaea" d="M8 17h1" />
<path stroke="#999999" d="M25 17h1M9 22h1" />
<path stroke="#252525" d="M3 18h1M11 25h1M9 28h1" />
<path stroke="#2e2e2e" d="M4 18h1" />
<path stroke="#7b7b7b" d="M5 18h1" />
<path stroke="#414141" d="M6 18h1" />
<path stroke="#101010" d="M18 18h1M17 24h1" />
<path stroke="#2d2d2d" d="M19 18h1M19 20h1M12 22h1M14 23h1" />
<path stroke="#8e8e8e" d="M25 18h1M25 21h1" />
<path stroke="#a2a2a2" d="M7 19h1" />
<path stroke="#797979" d="M8 19h1M13 27h1" />
<path stroke="#7f7f7f" d="M9 19h1" />
<path stroke="#383838" d="M19 19h1" />
<path stroke="#5c5c5c" d="M8 20h1" />
<path stroke="#a6a6a6" d="M15 20h1" />
<path stroke="#5b5b5b" d="M9 21h1" />
<path stroke="#2b2b2b" d="M18 21h1M19 26h1" />
<path stroke="#3f3f3f" d="M19 22h1M19 25h1M22 28h1" />
<path stroke="#666666" d="M25 22h1M19 23h1" />
<path stroke="#d8d8d8" d="M15 23h1" />
<path stroke="#b1b1b1" d="M7 24h1" />
<path stroke="#535353" d="M14 24h1" />
<path stroke="#4c4c4c" d="M19 24h1" />
<path stroke="#9a9a9a" d="M25 24h1" />
<path stroke="#515151" d="M15 25h1" />
<path stroke="#171717" d="M16 25h1" />
<path stroke="#e3e3e3" d="M8 26h1" />
<path stroke="#e5e5e5" d="M9 26h1" />
<path stroke="#181818" d="M17 26h1" />
<path stroke="#717171" d="M25 26h1" />
<path stroke="#cacaca" d="M8 27h1" />
<path stroke="#585858" d="M10 27h1" />
<path stroke="#6c6c6c" d="M11 27h1" />
<path stroke="#636363" d="M12 27h1" />
<path stroke="#4b4b4b" d="M14 27h1" />
<path stroke="#3b3b3b" d="M15 27h1" />
<path stroke="#1b1b1b" d="M16 27h1" />
<path stroke="#939393" d="M20 27h1" />
<path stroke="#424242" d="M25 27h1" />
<path stroke="#b0b0b0" d="M6 28h1" />
<path stroke="#dbdbdb" d="M18 28h1" />
<path stroke="#dadada" d="M19 28h1" />
<path stroke="#656565" d="M20 28h1" />
<path stroke="#bababa" d="M8 29h1" />
<path stroke="#7e7e7e" d="M23 29h1" />
<path stroke="#959595" d="M4 32h1" />
<path stroke="#979797" d="M6 32h1" />
<path stroke="#737373" d="M30 32h1" />
</svg>