<svg xmlns="http://www.w3.org/2000/svg" viewBox="0 -0.5 32 35" shape-rendering="crispEdges">
<metadata>Made with Pixels to Svg https://codepen.io/shshaw/pen/XbxvNj</metadata>
<path stroke="#000000" d="M0 0h2M30 0h2M0 1h1M31 1h1M0 33h1M31 33h1M0 34h2M30 34h2" />
<path stroke="#ffffff" d="M2 0h28M1 1h6M8 1h16M25 1h6M0 2h4M5 2h22M28 2h4M0 3h32M0 4h2M3 4h26M30 4h2M0 5h32M0 6h32M0 7h1M2 7h28M31 7h1M0 8h32M0 9h32M0 10h32M0 11h32M0 12h32M0 13h32M0 14h32M0 15h32M0 16h32M0 17h32M0 18h32M0 19h32M0 20h32M0 21h32M0 22h32M0 23h32M0 24h32M0 25h32M0 26h32M0 27h1M2 27h5M8 27h22M31 27h1M0 28h32M0 29h32M1 30h3M5 30h22M28 30h3M2 31h28" />
<path stroke="#fefefe" d="M7 1h1M24 1h1M4 2h1M27 2h1M2 4h1M29 4h1M1 7h1M30 7h1M1 27h1M7 27h1M30 27h1M4 30h1M27 30h1" />
<path stroke="#969696" d="M0 30h1M31 30h1M0 31h1M31 31h1M0 32h1M2 32h2M5 32h1M7 32h23M31 32h1M2 33h28M2 34h28" />
<path stroke="#717171" d="M1 31h1" />
<path stroke="#727272" d="M30 31h1M1 32h1M1 33h1M30 33h1" />
<path stroke="#959595" d="M4 32h1" />
<path stroke="#979797" d="M6 32h1" />
<path stroke="#737373" d="M30 32h1" />
</svg>