<svg xmlns="http://www.w3.org/2000/svg" viewBox="0 -0.5 32 35" shape-rendering="crispEdges">
<metadata>Made with Pixels to Svg https://codepen.io/shshaw/pen/XbxvNj</metadata>
<path stroke="#000000" d="M0 0h2M30 0h2M0 1h1M31 1h1M11 12h2M0 31h1M31 31h1M0 32h2M30 32h2M0 33h32M0 34h32" />
<path stroke="#ffffff" d="M2 0h28M1 1h30M0 2h6M7 2h25M0 3h25M28 3h4M0 4h6M7 4h7M15 4h9M28 4h4M0 5h2M3 5h19M28 5h4M0 6h20M27 6h5M0 7h2M10 7h6M26 7h6M0 8h3M11 8h5M21 8h2M25 8h7M0 9h1M2 9h2M11 9h2M20 9h2M24 9h8M0 10h5M11 10h1M18 10h3M23 10h9M0 11h6M8 11h1M17 11h3M22 11h9M0 12h4M5 12h5M16 12h3M22 12h10M0 13h9M16 13h2M21 13h11M0 14h8M16 14h1M20 14h12M0 15h8M13 15h1M19 15h1M21 15h1M23 15h4M28 15h4M0 16h8M12 16h3M19 16h13M0 17h1M2 17h4M12 17h2M20 17h9M30 17h1M0 18h7M11 18h2M16 18h1M21 18h11M0 19h7M15 19h3M24 19h3M28 19h4M0 20h3M4 20h2M9 20h3M14 20h5M24 20h1M28 20h4M0 21h6M9 21h1M13 21h8M29 21h3M0 22h5M8 22h1M12 22h11M29 22h3M0 23h5M11 23h7M19 23h4M29 23h3M0 24h4M11 24h12M30 24h2M0 25h4M10 25h13M28 25h4M0 26h1M2 26h1M9 26h1M11 26h6M18 26h5M28 26h4M0 27h3M9 27h1M11 27h12M26 27h6M0 28h2M8 28h11M20 28h11M0 29h2M5 29h27M1 30h30M2 31h7M10 31h16M27 31h3" />
<path stroke="#fefefe" d="M6 2h1M6 4h1M14 4h1M2 5h1M2 7h1M1 9h1M10 9h1M31 11h1M4 12h1M15 13h1M20 15h1M22 15h1M27 15h1M1 17h1M29 17h1M31 17h1M11 19h1M3 20h1M18 23h1M1 26h1M10 26h1M17 26h1M10 27h1M19 28h1M31 28h1M9 31h1M26 31h1" />
<path stroke="#f5f5f5" d="M25 3h1M10 21h1M3 26h1" />
<path stroke="#646464" d="M26 3h1M7 20h1" />
<path stroke="#585858" d="M27 3h1M28 22h1" />
<path stroke="#4b4b4b" d="M24 4h1" />
<path stroke="#101010" d="M25 4h1M18 17h1" />
<path stroke="#0c0c0c" d="M26 4h1M6 10h1M8 10h1M23 21h1M5 27h1" />
<path stroke="#1c1c1c" d="M27 4h1M17 17h1M12 20h1" />
<path stroke="#9a9a9a" d="M22 5h1" />
<path stroke="#3b3b3b" d="M23 5h1M9 11h1M19 12h1" />
<path stroke="#303030" d="M24 5h1M20 11h1M9 19h1M8 20h1M11 21h1" />
<path stroke="#232323" d="M25 5h1M22 6h1M5 28h1" />
<path stroke="#292929" d="M26 5h1M9 10h1" />
<path stroke="#e9e9e9" d="M27 5h1M20 6h1M3 8h1M15 9h1M15 12h1M6 17h1M11 17h1M13 18h1M17 18h1M12 19h1M27 19h1M28 23h1" />
<path stroke="#5a5a5a" d="M21 6h1" />
<path stroke="#515151" d="M23 6h1M9 8h1" />
<path stroke="#949494" d="M24 6h1" />
<path stroke="#242424" d="M25 6h1M16 8h2M5 26h1" />
<path stroke="#d5d5d5" d="M26 6h1M17 7h1M5 10h1M8 17h1M9 22h1" />
<path stroke="#959595" d="M3 7h1" />
<path stroke="#0d0d0d" d="M4 7h1M25 22h1" />
<path stroke="#050505" d="M5 7h1M12 11h1" />
<path stroke="#262626" d="M6 7h1M17 10h1M8 19h1" />
<path stroke="#1e1e1e" d="M7 7h1M13 10h1M20 19h1" />
<path stroke="#454545" d="M8 7h1M10 11h1M26 20h1" />
<path stroke="#2c2c2c" d="M9 7h1M6 25h1" />
<path stroke="#363636" d="M16 7h1" />
<path stroke="#f4f4f4" d="M18 7h1M10 8h1M16 11h1M21 12h1M14 13h1M20 13h1M15 14h1M19 14h1M18 15h1M18 19h1M6 20h1M19 20h1M21 21h1M10 24h1M8 27h1" />
<path stroke="#505050" d="M19 7h1M7 27h1" />
<path stroke="#717171" d="M20 7h1M13 20h1M8 24h1" />
<path stroke="#656565" d="M21 7h1M22 21h1" />
<path stroke="#8d8d8d" d="M22 7h1M26 21h1" />
<path stroke="#939393" d="M23 7h1" />
<path stroke="#131313" d="M24 7h1" />
<path stroke="#bbbbbb" d="M25 7h1M27 24h1" />
<path stroke="#0a0a0a" d="M4 8h2M9 15h1M16 16h1M24 22h1" />
<path stroke="#393939" d="M6 8h1M7 11h1M14 18h1M8 25h1" />
<path stroke="#181818" d="M7 8h1M19 18h1" />
<path stroke="#161616" d="M8 8h1M24 21h1" />
<path stroke="#3a3a3a" d="M18 8h1M13 14h1" />
<path stroke="#252525" d="M19 8h1M7 9h1M7 22h1" />
<path stroke="#747474" d="M20 8h1M11 16h1" />
<path stroke="#0b0b0b" d="M23 8h1M15 11h1" />
<path stroke="#a3a3a3" d="M24 8h1M14 19h1M25 25h1" />
<path stroke="#dfdfdf" d="M4 9h1M27 21h1M26 26h1" />
<path stroke="#0f0f0f" d="M5 9h1M8 18h1" />
<path stroke="#404040" d="M6 9h1" />
<path stroke="#272727" d="M8 9h1" />
<path stroke="#616161" d="M9 9h1M14 9h1M14 15h1M10 17h1M23 24h1" />
<path stroke="#cccccc" d="M13 9h1M24 27h1" />
<path stroke="#414141" d="M16 9h1M15 17h1M10 19h1M25 24h1" />
<path stroke="#020202" d="M17 9h1M10 15h1" />
<path stroke="#353535" d="M18 9h1M10 12h1" />
<path stroke="#c3c3c3" d="M19 9h1M10 10h1M7 19h1M8 23h1" />
<path stroke="#383838" d="M22 9h1" />
<path stroke="#555555" d="M23 9h1M28 24h1M4 27h1" />
<path stroke="#2f2f2f" d="M7 10h1M11 11h1" />
<path stroke="#9c9c9c" d="M12 10h1M27 20h1M8 21h1M23 27h1" />
<path stroke="#323232" d="M14 10h1M4 25h1" />
<path stroke="#070707" d="M15 10h1" />
<path stroke="#1b1b1b" d="M16 10h1M22 20h1M25 23h1" />
<path stroke="#121212" d="M21 10h1M9 17h1" />
<path stroke="#838383" d="M22 10h1" />
<path stroke="#8c8c8c" d="M6 11h1M27 23h1" />
<path stroke="#060606" d="M13 11h1" />
<path stroke="#090909" d="M14 11h1M10 16h1" />
<path stroke="#333333" d="M21 11h1M17 14h1" />
<path stroke="#2a2a2a" d="M13 12h1M10 13h1" />
<path stroke="#676767" d="M14 12h1M7 23h1M9 23h1" />
<path stroke="#313131" d="M20 12h1M11 15h1" />
<path stroke="#9f9f9f" d="M9 13h1" />
<path stroke="#010101" d="M11 13h2" />
<path stroke="#171717" d="M13 13h1" />
<path stroke="#5d5d5d" d="M18 13h1M11 22h1M26 22h1" />
<path stroke="#474747" d="M19 13h1M17 16h1" />
<path stroke="#a1a1a1" d="M8 14h1" />
<path stroke="#2d2d2d" d="M9 14h1M12 14h1M19 19h1M21 20h1M9 24h1" />
<path stroke="#030303" d="M10 14h1" />
<path stroke="#040404" d="M11 14h1M9 18h1" />
<path stroke="#434343" d="M14 14h1M25 21h1M25 26h1" />
<path stroke="#575757" d="M18 14h1" />
<path stroke="#464646" d="M8 15h1M20 20h1M6 24h1" />
<path stroke="#b9b9b9" d="M12 15h1M24 24h1M27 25h1M2 28h1M7 28h1" />
<path stroke="#282828" d="M15 15h1" />
<path stroke="#7d7d7d" d="M16 15h1M10 18h1" />
<path stroke="#777777" d="M17 15h1" />
<path stroke="#787878" d="M8 16h1" />
<path stroke="#757575" d="M9 16h1" />
<path stroke="#595959" d="M15 16h1" />
<path stroke="#c9c9c9" d="M18 16h1" />
<path stroke="#8e8e8e" d="M7 17h1" />
<path stroke="#b2b2b2" d="M14 17h1M5 22h1M7 24h1" />
<path stroke="#ababab" d="M16 17h1M22 19h1" />
<path stroke="#878787" d="M19 17h1" />
<path stroke="#2b2b2b" d="M7 18h1" />
<path stroke="#b1b1b1" d="M15 18h1" />
<path stroke="#373737" d="M18 18h1" />
<path stroke="#494949" d="M20 18h1M21 19h1" />
<path stroke="#212121" d="M13 19h1M23 26h1" />
<path stroke="#ececec" d="M23 19h1" />
<path stroke="#e2e2e2" d="M23 20h1" />
<path stroke="#9b9b9b" d="M25 20h1M6 22h1" />
<path stroke="#aaaaaa" d="M6 21h1M24 25h1" />
<path stroke="#606060" d="M7 21h1" />
<path stroke="#707070" d="M12 21h1M26 25h1" />
<path stroke="#cbcbcb" d="M28 21h1M2 29h1" />
<path stroke="#6c6c6c" d="M10 22h1" />
<path stroke="#737373" d="M23 22h1M8 26h1" />
<path stroke="#6d6d6d" d="M27 22h1" />
<path stroke="#7a7a7a" d="M5 23h1" />
<path stroke="#767676" d="M6 23h1" />
<path stroke="#222222" d="M10 23h1" />
<path stroke="#444444" d="M23 23h1M4 26h1" />
<path stroke="#828282" d="M24 23h1" />
<path stroke="#626262" d="M26 23h1" />
<path stroke="#bababa" d="M4 24h1M3 28h1" />
<path stroke="#5c5c5c" d="M5 24h1M4 29h1" />
<path stroke="#7b7b7b" d="M26 24h1" />
<path stroke="#696969" d="M29 24h1M6 27h1" />
<path stroke="#818181" d="M5 25h1" />
<path stroke="#6b6b6b" d="M7 25h1" />
<path stroke="#929292" d="M9 25h1" />
<path stroke="#666666" d="M23 25h1" />
<path stroke="#2e2e2e" d="M6 26h1" />
<path stroke="#4f4f4f" d="M7 26h1" />
<path stroke="#a8a8a8" d="M24 26h1" />
<path stroke="#727272" d="M27 26h1M1 31h1M30 31h1" />
<path stroke="#6f6f6f" d="M3 27h1" />
<path stroke="#b0b0b0" d="M25 27h1" />
<path stroke="#1d1d1d" d="M4 28h1" />
<path stroke="#c0c0c0" d="M6 28h1" />
<path stroke="#f3f3f3" d="M3 29h1" />
<path stroke="#969696" d="M0 30h1M31 30h1M2 32h28" />
</svg>