<svg xmlns="http://www.w3.org/2000/svg" viewBox="0 -0.5 32 35" shape-rendering="crispEdges">
<metadata>Made with Pixels to Svg https://codepen.io/shshaw/pen/XbxvNj</metadata>
<path stroke="#000000" d="M0 0h2M30 0h2M0 1h1M31 1h1M9 22h1M8 23h1M0 31h1M31 31h1M0 32h2M30 32h2M0 33h32M0 34h32" />
<path stroke="#ffffff" d="M2 0h21M25 0h5M1 1h6M8 1h16M25 1h6M0 2h4M5 2h17M23 2h9M0 3h27M28 3h4M0 4h2M3 4h23M28 4h4M0 5h25M28 5h4M0 6h25M28 6h4M0 7h1M2 7h16M19 7h3M26 7h6M0 8h21M26 8h2M29 8h3M0 9h20M25 9h1M27 9h4M0 10h19M22 10h1M25 10h7M0 11h8M9 11h3M13 11h5M21 11h1M24 11h8M0 12h17M20 12h1M23 12h9M0 13h16M19 13h1M22 13h10M0 14h16M18 14h1M22 14h5M28 14h4M0 15h8M9 15h6M17 15h1M21 15h11M0 16h10M11 16h2M19 16h13M0 17h9M15 17h1M18 17h14M0 18h3M4 18h6M14 18h1M17 18h15M0 19h2M4 19h6M14 19h1M16 19h16M0 20h8M16 20h16M0 21h7M8 21h1M16 21h16M0 22h8M14 22h1M16 22h16M0 23h5M6 23h1M14 23h18M0 24h7M14 24h18M0 25h6M11 25h1M14 25h13M28 25h4M0 26h3M8 26h17M27 26h5M0 27h4M7 27h25M0 28h2M7 28h25M0 29h3M5 29h24M30 29h2M1 30h2M4 30h27M2 31h7M10 31h20" />
<path stroke="#fefefe" d="M23 0h2M7 1h1M24 1h1M4 2h1M22 2h1M2 4h1M1 7h1M18 7h1M28 8h1M26 9h1M31 9h1M8 11h1M12 11h1M27 14h1M8 15h1M3 18h1M2 19h2M7 21h1M5 23h1M12 25h1M27 25h1M3 26h1M25 26h2M2 28h1M29 29h1M3 30h1M9 31h1" />
<path stroke="#d5d5d5" d="M27 3h1M15 16h1M8 20h1" />
<path stroke="#242424" d="M26 4h1" />
<path stroke="#171717" d="M27 4h1M8 22h1" />
<path stroke="#1d1d1d" d="M25 5h1M8 24h1" />
<path stroke="#060606" d="M26 5h1M5 27h1" />
<path stroke="#2b2b2b" d="M27 5h1" />
<path stroke="#111111" d="M25 6h1M22 11h1M10 23h1" />
<path stroke="#131313" d="M26 6h1M21 13h1" />
<path stroke="#6f6f6f" d="M27 6h1" />
<path stroke="#e9e9e9" d="M22 7h1M15 18h1M13 25h1" />
<path stroke="#0e0e0e" d="M23 7h1M15 21h1" />
<path stroke="#959595" d="M24 7h1" />
<path stroke="#1c1c1c" d="M25 7h1" />
<path stroke="#eaeaea" d="M21 8h1" />
<path stroke="#181818" d="M22 8h1" />
<path stroke="#858585" d="M23 8h1" />
<path stroke="#777777" d="M24 8h1" />
<path stroke="#f3f3f3" d="M25 8h1M9 17h1" />
<path stroke="#c3c3c3" d="M20 9h1" />
<path stroke="#030303" d="M21 9h1M12 20h1" />
<path stroke="#afafaf" d="M22 9h1" />
<path stroke="#c0c0c0" d="M23 9h1M17 14h1" />
<path stroke="#080808" d="M24 9h1M7 23h1" />
<path stroke="#bbbbbb" d="M19 10h1" />
<path stroke="#010101" d="M20 10h1M11 18h1M12 19h1M13 20h1M10 21h1M5 26h1" />
<path stroke="#4c4c4c" d="M21 10h1" />
<path stroke="#121212" d="M23 10h1M14 16h1M9 24h1" />
<path stroke="#a4a4a4" d="M24 10h1" />
<path stroke="#9c9c9c" d="M18 11h1" />
<path stroke="#020202" d="M19 11h1M6 27h1" />
<path stroke="#4f4f4f" d="M20 11h1" />
<path stroke="#969696" d="M23 11h1M0 30h1M31 30h1M2 32h28" />
<path stroke="#868686" d="M17 12h1" />
<path stroke="#090909" d="M18 12h1M11 20h1M13 21h1M4 28h1" />
<path stroke="#8b8b8b" d="M19 12h1M7 26h1" />
<path stroke="#2d2d2d" d="M21 12h1M10 20h1" />
<path stroke="#434343" d="M22 12h1" />
<path stroke="#797979" d="M16 13h1M15 15h1" />
<path stroke="#070707" d="M17 13h1M14 21h1" />
<path stroke="#848484" d="M18 13h1" />
<path stroke="#3e3e3e" d="M20 13h1" />
<path stroke="#0a0a0a" d="M16 14h1M11 22h1" />
<path stroke="#484848" d="M19 14h1" />
<path stroke="#141414" d="M20 14h1" />
<path stroke="#f4f4f4" d="M21 14h1M10 16h1M16 16h1M10 19h1M11 24h1M10 25h1" />
<path stroke="#b6b6b6" d="M16 15h1" />
<path stroke="#b9b9b9" d="M18 15h1" />
<path stroke="#2f2f2f" d="M19 15h1" />
<path stroke="#939393" d="M20 15h1M10 18h1" />
<path stroke="#474747" d="M13 16h1" />
<path stroke="#282828" d="M17 16h1M12 23h1" />
<path stroke="#cccccc" d="M18 16h1" />
<path stroke="#343434" d="M10 17h1" />
<path stroke="#a1a1a1" d="M11 17h1M13 22h1" />
<path stroke="#3b3b3b" d="M12 17h1M3 29h1" />
<path stroke="#1b1b1b" d="M13 17h1M12 18h1" />
<path stroke="#b2b2b2" d="M14 17h1M13 19h1" />
<path stroke="#272727" d="M16 17h1M10 22h1" />
<path stroke="#6e6e6e" d="M17 17h1" />
<path stroke="#a9a9a9" d="M13 18h1" />
<path stroke="#787878" d="M16 18h1" />
<path stroke="#0b0b0b" d="M11 19h1" />
<path stroke="#4d4d4d" d="M15 19h1" />
<path stroke="#2e2e2e" d="M9 20h1" />
<path stroke="#050505" d="M14 20h1M6 26h1" />
<path stroke="#191919" d="M15 20h1M11 23h1" />
<path stroke="#262626" d="M9 21h1" />
<path stroke="#333333" d="M11 21h1" />
<path stroke="#212121" d="M12 21h1" />
<path stroke="#2c2c2c" d="M12 22h1" />
<path stroke="#7a7a7a" d="M15 22h1M3 28h1" />
<path stroke="#101010" d="M9 23h1" />
<path stroke="#b1b1b1" d="M13 23h1" />
<path stroke="#040404" d="M7 24h1" />
<path stroke="#393939" d="M10 24h1" />
<path stroke="#808080" d="M12 24h2" />
<path stroke="#323232" d="M6 25h1" />
<path stroke="#1e1e1e" d="M7 25h1" />
<path stroke="#303030" d="M8 25h1" />
<path stroke="#585858" d="M9 25h1" />
<path stroke="#3d3d3d" d="M4 26h1" />
<path stroke="#404040" d="M4 27h1" />
<path stroke="#707070" d="M5 28h1" />
<path stroke="#2a2a2a" d="M6 28h1" />
<path stroke="#5c5c5c" d="M4 29h1" />
<path stroke="#727272" d="M1 31h1" />
<path stroke="#717171" d="M30 31h1" />
</svg>